<svg xmlns="http://www.w3.org/2000/svg" width="24" height="24" viewBox="0 0 24 24">
    <g fill="none" fill-rule="evenodd">
        <path d="M0 0h24v24H0z"/>
        <path fill="#000" fill-rule="nonzero" d="M16.374 19.939l5.849-8.773A.75.75 0 0 0 21.599 10H17V4.477a.75.75 0 0 0-1.374-.416l-5.849 8.773A.75.75 0 0 0 10.401 14H15v5.523a.75.75 0 0 0 1.374.416z"/>
        <path fill="#000" fill-rule="nonzero" d="M4.5 5h5a1.5 1.5 0 0 1 0 3h-5a1.5 1.5 0 0 1 0-3zm0 12h5a1.5 1.5 0 0 1 0 3h-5a1.5 1.5 0 0 1 0-3zm-2-6h4a1.5 1.5 0 0 1 0 3h-4a1.5 1.5 0 0 1 0-3z"/>
    </g>
</svg>
