<svg xmlns="http://www.w3.org/2000/svg" width="24" height="24" viewBox="0 0 24 24">
    <g fill="none" fill-rule="evenodd">
        <path d="M0 0h24v24H0z"/>
        <g fill-rule="nonzero">
            <path fill="#E4002B" d="M12 20.293L8.527 22l-1.58-3.574-3.74-.96 1.051-3.769L2 10.52l3.192-2.2.281-3.908 3.838.398L12 2l2.689 2.81 3.838-.398.28 3.908L22 10.52l-2.258 3.177 1.052 3.77-3.741.959L15.473 22z"/>
            <path fill="#000" d="M14.667 8L8 14.733 9.333 16 16 9.267zM11 9.5a1.5 1.5 0 1 1-2.998.002A1.5 1.5 0 0 1 11 9.5M14.5 16a1.5 1.5 0 1 1 0-3 1.5 1.5 0 0 1 0 3z"/>
        </g>
    </g>
</svg>
